<?xml version="1.0" standalone="no"?>
<!DOCTYPE svg PUBLIC "-//W3C//DTD SVG 20010904//EN"
 "http://www.w3.org/TR/2001/REC-SVG-20010904/DTD/svg10.dtd">
<svg version="1.0" xmlns="http://www.w3.org/2000/svg"
 width="608.000000pt" height="608.000000pt" viewBox="0 0 608.000000 608.000000"
 preserveAspectRatio="xMidYMid meet">
<metadata>
Created by potrace 1.14, written by Peter Selinger 2001-2017
</metadata>
<g transform="translate(0.000000,608.000000) scale(0.100000,-0.100000)"
fill="#000000" stroke="none">
<path d="M3115 4080 c-74 -25 -442 -169 -528 -207 l-37 -16 2 -260 c3 -219 5
-261 18 -268 8 -4 48 -18 88 -30 41 -12 79 -28 86 -34 8 -9 11 -95 11 -311 l0
-299 -233 0 -233 0 1 300 c1 165 2 356 4 425 1 69 0 135 -2 147 -6 31 -47 35
-107 9 -42 -19 -173 -66 -197 -72 -5 -1 -10 -3 -13 -4 -3 -1 -8 -3 -12 -5 -5
-1 -15 -4 -23 -8 -65 -26 -289 -107 -297 -107 -28 0 -43 -38 -43 -106 0 -38 0
-76 0 -84 -1 -8 1 -30 3 -47 2 -18 -1 -33 -6 -33 -4 0 -5 -5 -2 -11 11 -16 12
-69 3 -75 -5 -3 -5 -10 -2 -16 9 -14 11 -68 3 -68 -3 0 -5 -10 -3 -22 1 -13 3
-23 4 -23 7 0 5 -47 -2 -51 -4 -3 -5 -10 -1 -17 9 -15 10 -57 1 -57 -4 0 -4
-10 1 -22 5 -13 5 -32 1 -43 -4 -11 -5 -27 -1 -35 9 -20 7 -133 -3 -148 -4 -7
-3 -12 1 -12 5 0 8 -19 6 -42 -2 -24 -3 -50 -3 -58 3 -129 2 -179 -4 -188 -4
-7 -4 -12 1 -12 4 0 8 -36 8 -80 0 -44 -4 -80 -8 -80 -4 0 -4 -7 1 -17 5 -9 6
-29 2 -44 -5 -15 -6 -30 -3 -33 10 -9 10 -51 0 -63 -5 -7 -6 -13 -1 -13 5 0 9
-22 9 -50 0 -27 -4 -50 -9 -50 -5 0 -4 -6 1 -13 10 -14 9 -169 -1 -186 -4 -6
-3 -11 1 -11 5 0 8 -32 7 -70 -1 -42 3 -73 10 -78 20 -12 664 -13 672 0 8 13
7 575 -1 588 -13 21 43 27 245 25 118 -1 217 -2 220 -3 3 -1 4 -131 3 -289 -1
-159 0 -297 2 -308 4 -20 12 -20 709 -20 533 0 708 3 717 12 14 14 -19 25 -87
27 -24 0 -44 5 -44 9 0 5 -4 5 -10 2 -11 -7 -48 11 -71 34 -26 28 -39 81 -41
178 -2 51 -6 93 -10 93 -4 0 -3 11 2 25 5 14 6 25 2 25 -6 0 -9 287 -3 353 1
15 13 17 104 17 67 0 109 -4 119 -12 16 -13 112 -163 129 -203 10 -22 31 -57
39 -65 3 -3 26 -39 50 -80 131 -221 237 -332 355 -372 85 -29 153 -36 437 -42
139 -4 179 -2 188 9 15 19 -2 27 -61 31 -26 1 -67 12 -91 23 -44 20 -161 128
-226 209 -19 22 -41 50 -50 61 -10 11 -28 34 -42 52 -14 17 -33 40 -42 50 -10
11 -18 23 -18 28 0 5 -7 14 -15 21 -12 10 -66 84 -100 138 -5 9 -17 24 -26 34
-9 10 -34 44 -55 76 -21 31 -55 80 -74 107 -56 78 -57 76 23 136 39 30 85 68
102 86 65 68 85 92 85 101 0 6 7 18 16 27 34 33 62 145 62 240 -1 50 -4 97 -8
105 -4 8 -20 42 -35 75 -27 61 -102 155 -123 155 -7 0 -12 4 -12 8 0 4 -24 20
-52 34 -72 35 -129 53 -208 64 -19 3 -48 7 -65 10 -16 3 -243 7 -503 8 -355 2
-476 6 -485 15 -8 8 -12 61 -12 174 -1 89 -4 167 -8 174 -4 6 -3 14 1 17 10 6
9 42 -1 52 -3 4 -3 12 0 17 11 18 12 56 2 63 -5 3 -6 10 -2 16 3 7 6 35 5 64
-1 63 13 79 49 60 14 -7 33 -12 42 -10 9 1 17 -2 17 -7 0 -6 6 -9 13 -8 6 1
19 0 27 -4 27 -10 165 -50 185 -54 11 -2 27 -6 35 -10 8 -3 35 -13 60 -22 l45
-16 1 -179 c2 -197 1 -196 66 -196 26 0 40 5 46 18 5 9 8 108 7 219 0 183 -2
203 -19 222 -11 12 -21 19 -23 17 -4 -4 -81 19 -173 53 -30 10 -58 17 -62 15
-5 -3 -8 0 -8 5 0 6 -3 10 -7 9 -11 -2 -176 45 -243 70 -8 3 -19 7 -25 7 -5 1
-23 8 -40 14 -16 7 -37 14 -45 16 -8 2 -17 4 -20 5 -3 1 -8 2 -12 1 -5 0 -8 4
-8 10 0 5 -5 7 -11 3 -6 -3 -14 -2 -18 4 -4 6 -35 0 -86 -18z m285 -863 c50
-18 57 -24 76 -63 14 -30 17 -73 18 -267 1 -142 5 -235 11 -240 6 -4 -3 -4
-20 0 -16 4 -59 7 -95 7 -58 1 -65 3 -65 21 -1 11 -3 25 -7 30 -3 6 -4 19 -1
30 7 40 8 127 0 132 -4 2 -4 10 0 16 9 15 11 247 2 247 -4 0 -3 16 1 35 4 19
6 35 3 35 -3 0 0 7 7 15 15 18 25 18 70 2z m679 -102 c66 -4 146 -39 198 -85
87 -78 130 -202 128 -365 -3 -175 -29 -269 -90 -319 -35 -30 -41 -32 -100 -42
-68 -12 -222 -1 -239 16 -5 5 -17 10 -26 10 -20 0 -39 49 -30 75 4 11 4 27 1
35 -9 20 -6 640 3 661 4 9 20 16 38 17 16 0 32 3 35 6 3 3 10 3 14 0 5 -2 35
-6 68 -9z m-576 -550 c-7 -21 -12 -19 -10 4 0 11 5 18 9 15 4 -3 5 -11 1 -19z
m1 -40 c3 -8 1 -15 -4 -15 -6 0 -10 7 -10 15 0 8 2 15 4 15 2 0 6 -7 10 -15z
m1 -55 c-1 -16 -5 -33 -9 -37 -6 -6 -3 47 3 65 4 11 7 -3 6 -28z m-1 -76 c-4
-37 -11 -39 -12 -4 0 16 3 30 7 30 5 0 7 -12 5 -26z m2 -84 c0 -22 -3 -40 -6
-40 -3 0 -7 18 -7 40 0 22 2 40 6 40 3 0 6 -18 7 -40z m0 -95 c-3 -23 -12 -26
-13 -5 -1 11 2 20 7 20 4 0 7 -7 6 -15z m-2 -50 c-4 -8 -8 -15 -10 -15 -2 0
-4 7 -4 15 0 8 4 15 10 15 5 0 7 -7 4 -15z m0 -61 c-4 -37 -11 -39 -12 -4 0
16 3 30 7 30 5 0 7 -12 5 -26z m1 -53 c3 -5 2 -12 -3 -15 -5 -3 -9 1 -9 9 0
17 3 19 12 6z m-2 -64 c-2 -4 -7 -94 -9 -200 -6 -250 -7 -265 -26 -309 -18
-41 -36 -53 -94 -62 -34 -6 -43 -4 -49 11 -12 25 -12 34 -4 65 4 15 3 30 -2
34 -5 3 -6 10 -3 16 9 14 10 119 1 125 -4 2 -3 12 1 21 8 16 7 67 -2 105 -2 9
-1 17 3 17 8 0 7 47 -1 55 -3 3 -2 23 2 44 4 22 3 45 -1 53 -17 30 6 40 90 39
59 -1 81 2 81 11 0 9 3 9 9 -2 6 -8 7 -18 4 -23z"/>
</g>
</svg>
